<svg width="512" height="512" viewBox="0 0 512 512" fill="none" xmlns="http://www.w3.org/2000/svg">
<path fill-rule="evenodd" clip-rule="evenodd" d="M399.735 394.5C399.735 421.95 336.147 444.067 257.748 444.067C179.349 444.067 115.76 421.752 115.76 394.5C115.76 367.051 179.349 344.933 257.748 344.933C336.147 344.933 399.735 367.051 399.735 394.5Z" fill="#9EDCF2"/>
<mask id="mask0_308_2961" style="mask-type:luminance" maskUnits="userSpaceOnUse" x="177" y="378" width="159" height="134">
<path fill-rule="evenodd" clip-rule="evenodd" d="M196.727 483.366C199.886 498.177 207.588 506.866 215.29 512H296.453C306.327 505.286 316.399 492.647 316.399 468.95V407.731C316.399 407.731 317.584 392.525 331.605 387.588C331.605 387.588 339.701 381.862 331.012 378.702C331.012 378.702 292.504 375.542 292.504 407.139V453.744C292.504 453.744 294.084 470.924 285 478.034V420.37C285 420.37 285.592 402.004 295.071 395.093C295.071 395.093 301.39 383.836 287.567 386.798C287.567 386.798 261.105 390.551 259.92 421.555L259.327 480.798H253.008L252.416 421.555C251.231 390.748 224.769 386.798 224.769 386.798C210.945 383.639 217.264 395.093 217.264 395.093C226.743 402.004 227.336 420.37 227.336 420.37V478.626C218.252 472.109 219.832 453.744 219.832 453.744V407.139C219.832 375.542 181.323 378.702 181.323 378.702C172.437 381.862 180.731 387.588 180.731 387.588C194.554 392.723 195.937 407.731 195.937 407.731V450.584L196.727 483.366Z" fill="white"/>
</mask>
<g mask="url(#mask0_308_2961)">
<path fill-rule="evenodd" clip-rule="evenodd" d="M399.735 394.5C399.735 421.95 336.147 444.067 257.748 444.067C179.349 444.067 115.76 421.752 115.76 394.5C115.76 367.051 179.349 344.933 257.748 344.933C336.147 344.933 399.735 367.051 399.735 394.5Z" fill="#7DBCE7"/>
</g>
<path fill-rule="evenodd" clip-rule="evenodd" d="M95.6176 248.563L91.4705 262.782C91.4705 262.782 90.4831 267.916 95.2226 268.904C100.357 268.706 99.9621 263.967 99.5671 262.584L95.6176 248.563Z" fill="#9EDCF2"/>
<path fill-rule="evenodd" clip-rule="evenodd" d="M508.151 188.727L508.546 186.95C466.878 178.656 424.222 178.458 398.353 179.643C402.5 164.437 403.882 146.664 403.882 127.114C403.882 98.8744 393.218 76.3618 376.235 59.3786C379.197 49.7022 383.147 28.177 372.285 0.727442C372.285 0.727442 352.932 -5.3944 308.895 24.0299C291.714 19.6854 273.348 17.5131 254.983 17.5131C234.84 17.5131 214.5 20.0804 195.344 25.2148C149.924 -5.78936 129.979 0.529963 129.979 0.529963C116.945 33.114 125.042 57.4039 127.412 63.3282C112.008 79.9164 102.727 101.047 102.727 126.916C102.727 146.467 104.899 164.042 110.428 179.248C84.3613 178.261 43.2857 178.656 3 186.752L3.39496 188.53C43.6806 180.433 85.1512 180.236 111.021 181.223C112.206 184.383 113.588 187.542 114.97 190.505C89.2982 191.294 45.6554 194.652 3.78992 206.5L4.38235 208.278C46.6428 196.429 90.6806 193.269 116.155 192.479C131.559 220.916 161.575 239.479 215.29 245.206C207.588 250.341 199.886 259.03 196.727 273.841C186.26 278.778 153.479 291.021 133.731 257.055C133.731 257.055 122.672 236.912 101.542 235.332C101.542 235.332 81.0041 234.937 100.16 248.168C100.16 248.168 113.786 254.685 123.265 278.975C123.265 278.975 135.706 320.446 195.147 307.017V349.475C195.147 349.475 193.962 364.681 179.941 369.618C179.941 369.618 171.647 375.345 180.533 378.504C180.533 378.504 219.042 381.664 219.042 350.067V303.462C219.042 303.462 217.462 284.899 226.546 278.58V355.202C226.546 355.202 225.954 373.567 216.475 380.479C216.475 380.479 210.155 391.735 223.979 388.773C223.979 388.773 250.441 385.021 251.626 354.017L252.218 276.408H258.538L259.13 354.017C260.315 384.824 286.777 388.773 286.777 388.773C300.601 391.933 294.281 380.479 294.281 380.479C284.802 373.567 284.21 355.202 284.21 355.202V279.173C293.294 286.282 291.714 303.462 291.714 303.462V350.067C291.714 381.664 330.222 378.504 330.222 378.504C339.109 375.345 330.815 369.618 330.815 369.618C316.991 364.483 315.609 349.475 315.609 349.475V288.257C315.609 264.362 305.538 251.723 295.664 245.206C352.932 239.479 380.382 221.114 393.021 192.282C418.1 192.874 463.323 196.034 506.373 208.278L506.966 206.5C464.113 194.454 419.285 191.294 393.811 190.505C394.995 187.542 395.983 184.58 396.97 181.421C423.432 180.433 466.285 180.433 508.151 188.727Z" fill="#010101"/>
<path fill-rule="evenodd" clip-rule="evenodd" d="M347.798 125.732C360.042 136.988 367.348 150.416 367.348 164.832C367.348 232.765 316.794 234.542 254.39 234.542C191.987 234.542 141.433 225.063 141.433 164.832C141.433 150.416 148.542 136.988 160.786 125.929C181.126 107.366 215.487 117.24 254.39 117.24C293.294 117.24 327.458 107.169 347.798 125.732Z" fill="#F5CCB3"/>
<path fill-rule="evenodd" clip-rule="evenodd" d="M216.87 168.387C216.87 187.147 206.403 202.156 193.37 202.156C180.336 202.156 169.87 186.95 169.87 168.387C169.87 149.626 180.336 134.618 193.37 134.618C206.403 134.421 216.87 149.626 216.87 168.387Z" fill="white"/>
<path fill-rule="evenodd" clip-rule="evenodd" d="M209.365 168.782C209.365 181.223 202.256 191.294 193.764 191.294C185.075 191.294 178.164 181.223 178.164 168.782C178.164 156.341 185.273 146.269 193.764 146.269C202.256 146.269 209.365 156.341 209.365 168.782Z" fill="#AF5C51"/>
<path fill-rule="evenodd" clip-rule="evenodd" d="M343.058 168.387C343.058 187.147 332.592 202.156 319.559 202.156C306.525 202.156 296.059 186.95 296.059 168.387C296.059 149.626 306.525 134.618 319.559 134.618C332.395 134.421 343.058 149.626 343.058 168.387Z" fill="white"/>
<path fill-rule="evenodd" clip-rule="evenodd" d="M335.357 168.782C335.357 181.223 328.248 191.294 319.756 191.294C311.067 191.294 304.155 181.223 304.155 168.782C304.155 156.341 311.264 146.269 319.756 146.269C328.445 146.269 335.357 156.341 335.357 168.782Z" fill="#AF5C51"/>
<path fill-rule="evenodd" clip-rule="evenodd" d="M260.71 198.404C260.71 201.563 258.143 204.328 254.785 204.328C251.626 204.328 248.861 201.761 248.861 198.404C248.861 195.047 251.428 192.479 254.785 192.479C257.945 192.479 260.71 195.047 260.71 198.404Z" fill="#AF5C51"/>
<path fill-rule="evenodd" clip-rule="evenodd" d="M241.159 213.215C240.764 212.227 241.357 211.24 242.344 210.845C243.332 210.45 244.319 211.042 244.714 212.03C246.294 216.374 250.243 219.139 254.785 219.139C259.327 219.139 263.277 216.177 264.857 212.03C265.252 211.042 266.239 210.45 267.227 210.845C268.214 211.24 268.806 212.227 268.411 213.215C266.437 218.942 260.907 222.891 254.785 222.891C248.664 222.891 243.134 218.942 241.159 213.215Z" fill="#AF5C51"/>
<path fill-rule="evenodd" clip-rule="evenodd" d="M110.626 240.072C110.626 241.652 108.849 242.836 106.479 242.836C104.307 242.836 102.332 241.652 102.332 240.072C102.332 238.492 104.109 237.307 106.479 237.307C108.849 237.307 110.626 238.492 110.626 240.072Z" fill="#C4E5D9"/>
<path fill-rule="evenodd" clip-rule="evenodd" d="M122.08 246.391C122.08 247.971 120.302 249.156 117.933 249.156C115.76 249.156 113.786 247.971 113.786 246.391C113.786 244.811 115.563 243.626 117.933 243.626C120.302 243.626 122.08 244.811 122.08 246.391Z" fill="#C4E5D9"/>
<path fill-rule="evenodd" clip-rule="evenodd" d="M128.991 254.685C128.991 256.265 127.214 257.45 124.844 257.45C122.672 257.45 120.697 256.265 120.697 254.685C120.697 253.105 122.475 251.92 124.844 251.92C127.214 251.723 128.991 253.105 128.991 254.685Z" fill="#C4E5D9"/>
<path fill-rule="evenodd" clip-rule="evenodd" d="M135.311 264.164C135.311 265.744 133.533 266.929 131.164 266.929C128.991 266.929 127.017 265.744 127.017 264.164C127.017 262.584 128.794 261.399 131.164 261.399C133.533 261.202 135.311 262.584 135.311 264.164Z" fill="#C4E5D9"/>
<path fill-rule="evenodd" clip-rule="evenodd" d="M142.223 272.853C142.223 274.433 140.445 275.618 138.075 275.618C135.903 275.618 133.928 274.433 133.928 272.853C133.928 271.273 135.706 270.089 138.075 270.089C140.445 270.089 142.223 271.273 142.223 272.853Z" fill="#C4E5D9"/>
<path fill-rule="evenodd" clip-rule="evenodd" d="M151.702 280.555C151.702 282.135 149.924 283.32 147.554 283.32C145.382 283.32 143.407 282.135 143.407 280.555C143.407 278.975 145.185 277.79 147.554 277.79C149.924 277.593 151.702 278.975 151.702 280.555Z" fill="#C4E5D9"/>
<path fill-rule="evenodd" clip-rule="evenodd" d="M164.933 285.492C164.933 287.072 163.155 288.257 160.786 288.257C158.613 288.257 156.639 287.072 156.639 285.492C156.639 283.912 158.416 282.727 160.786 282.727C163.155 282.727 164.933 283.912 164.933 285.492Z" fill="#C4E5D9"/>
<path fill-rule="evenodd" clip-rule="evenodd" d="M178.164 285.492C178.164 287.072 176.386 288.257 174.017 288.257C171.844 288.257 169.87 287.072 169.87 285.492C169.87 283.912 171.647 282.727 174.017 282.727C176.386 282.727 178.164 283.912 178.164 285.492Z" fill="#C4E5D9"/>
<path fill-rule="evenodd" clip-rule="evenodd" d="M191.592 283.32C191.592 284.899 189.815 286.084 187.445 286.084C185.273 286.084 183.298 284.899 183.298 283.32C183.298 281.74 185.075 280.555 187.445 280.555C189.617 280.555 191.592 281.74 191.592 283.32Z" fill="#C4E5D9"/>
</svg>
