<svg width="512" height="512" viewBox="0 0 512 512" fill="none" xmlns="http://www.w3.org/2000/svg">
<path d="M0 5L438.476 468.655C438.476 468.655 453.414 479.173 464.837 466.902C476.26 454.632 467.473 442.361 467.473 442.361L0 5Z" fill="#DF4F4F"/>
<path d="M138.836 48.8237L472.745 408.178C472.745 408.178 487.683 418.696 499.107 406.426C510.53 394.155 501.743 381.884 501.743 381.884L138.836 48.8237Z" fill="#DF4F4F"/>
<path d="M375.209 501.961L41.2998 142.607L404.207 475.667C404.207 475.667 412.994 487.938 401.57 500.208C390.147 512.479 375.209 501.961 375.209 501.961Z" fill="#DF4F4F"/>
<path d="M256.203 86.5122L489.486 337.572C489.486 337.572 499.922 344.92 507.903 336.347C515.883 327.774 509.744 319.202 509.744 319.202L256.203 86.5122Z" fill="#DF4F4F"/>
<path d="M306.715 502.349L73.4326 251.289L326.974 483.979C326.974 483.979 333.113 492.552 325.132 501.124C317.151 509.697 306.715 502.349 306.715 502.349Z" fill="#DF4F4F"/>
<path d="M376.086 140.854L481.817 254.988C481.817 254.988 486.98 258.431 490.928 254.414C494.876 250.397 491.839 246.38 491.839 246.38L376.086 140.854Z" fill="#DF4F4F"/>
<path d="M237.538 481.118L131.807 366.984L247.559 472.511C247.559 472.511 250.596 476.528 246.648 480.545C242.701 484.562 237.538 481.118 237.538 481.118Z" fill="#DF4F4F"/>
</svg>
